:SAMPLES-PER-SECOND 30
:FRAME-RANGE 1-1086
:FULLY-SPECIFIED
:DEGREES
510
root  -38.5288 37.568 47.0489 6.21812 57.0028 -0.740311
RightUpLeg  6.65984 -1.66941 -8.90383
RightLeg  14.7713 0.86249 -1.08784
RightFoot  -20.0557 1.33205 19.1169
RightToes  -5.8209e-011 0 -3.6325e-017
Spine  9.46868 1.95593 8.97109
Spine1  -1.16545 3.18181 -4.64767
HEad  -6.76529 -14.125 1.82859
LeftShoulder1  1.91608 -1.71859 -30.6494
LeftArm  15.2858 4.60811 -23.4501
LeftForeArm  -2.35026 -0.889414 -19.3686
LeftHand  0.424495 -1.2093 -7.38033
RightShoulder  14.473 23.9344 45.9623
RightArm  6.93765 19.2003 16.8741
RightForeArm  -14.1918 27.3801 6.61456
RightHand  0.41075 3.07915 5.39832
LeftUpLeg  -33.8524 19.464 7.77323
LeftLeg  9.2902 9.29205 -1.85772
LeftFoot  -4.28647 0.629326 -9.77609
LeftToes  5.72949e-011 5.22586e-011 2.45399e-011
511
root  -36.5499 37.1908 47.0485 6.29431 56.232 -0.137421
RightUpLeg  8.65754 1.62643 -11.2798
RightLeg  16.5917 0.725859 -0.300785
RightFoot  -19.415 1.52971 23.2595
RightToes  -5.8209e-011 0 -3.6325e-017
Spine  9.17823 2.21692 7.32455
Spine1  -0.90156 3.38077 -5.12733
HEad  -6.04551 -14.1983 2.5362
LeftShoulder1  1.90947 -1.78728 -30.0415
LeftArm  16.2083 4.84184 -23.1649
LeftForeArm  -4.36422 -0.48765 -19.6198
LeftHand  0.409836 -0.884898 -7.52805
RightShoulder  14.4775 23.7181 46.3619
RightArm  5.57087 18.5232 16.5438
RightForeArm  -14.0693 29.0158 7.01295
RightHand  0.464058 2.94837 6.23393
LeftUpLeg  -36.118 23.8936 2.80459
LeftLeg  15.3126 4.41861 0.538362
LeftFoot  0.149596 0.743277 -7.39102
LeftToes  5.72949e-011 5.22586e-011 2.45399e-011
512
root  -34.5402 36.7083 46.9941 6.4904 55.6181 1.09833
RightUpLeg  8.77319 4.62966 -13.9336
RightLeg  22.6671 1.32472 0.392442
RightFoot  -17.9058 1.55573 28.6974
RightToes  -5.8209e-011 0 -3.6325e-017
Spine  9.80963 2.43367 4.60346
Spine1  -1.31314 3.10471 -4.15273
HEad  -5.93925 -14.0836 3.32658
LeftShoulder1  1.92633 -1.83971 -30.003
LeftArm  16.607 3.73416 -22.8994
LeftForeArm  -6.24922 -0.199167 -19.8266
LeftHand  0.404067 -0.697131 -7.67277
RightShoulder  14.4862 23.4517 46.8708
RightArm  4.89732 18.2189 15.7876
RightForeArm  -14.1635 30.154 7.30779
RightHand  0.490033 2.66337 6.85192
LeftUpLeg  -37.2694 24.4249 0.793479
LeftLeg  22.2906 1.24884 0.897995
LeftFoot  6.99263 0.735142 -4.81851
LeftToes  5.72949e-011 5.22586e-011 2.45399e-011
513
root  -32.7269 36.3575 46.9434 7.35501 56.4827 3.21606
RightUpLeg  5.90276 6.78778 -15.9604
RightLeg  33.9477 -0.314079 -0.474708
RightFoot  -11.9973 0.103887 31.7983
RightToes  -5.8209e-011 0 -3.6325e-017
Spine  10.9922 2.33588 1.35191
Spine1  -1.41709 2.40185 -2.76599
HEad  -6.38036 -14.6371 4.11802
LeftShoulder1  2.04023 -2.16071 -29.9737
LeftArm  16.3723 -0.444894 -23.483
LeftForeArm  -6.23756 -0.584083 -19.8331
LeftHand  0.356068 -0.310478 -7.26366
RightShoulder  14.2975 23.3267 46.466
RightArm  3.24787 17.98 15.4172
RightForeArm  -14.8592 30.3719 7.3978
RightHand  0.477073 2.39813 6.91599
LeftUpLeg  -37.8621 22.0212 -0.343613
LeftLeg  30.5787 2.03099 1.64987
LeftFoot  2.57072 0.334129 -2.86672
LeftToes  5.72949e-011 5.22586e-011 2.45399e-011
514
root  -30.9835 36.2852 46.9017 7.90475 56.8734 4.5993
RightUpLeg  -1.40031 7.89742 -16.4378
RightLeg  49.3484 -3.98437 -5.30322
RightFoot  2.05766 -1.92121 16.3738
RightToes  -5.8209e-011 0 -3.6325e-017
Spine  11.5526 2.14901 0.153465
Spine1  -0.659051 2.29685 -3.15879
HEad  -6.84908 -15.2333 4.6842
LeftShoulder1  2.19682 -2.70254 -29.3472
LeftArm  16.2214 -6.29969 -24.6293
LeftForeArm  -5.40772 -0.963588 -19.7938
LeftHand  0.333857 -0.198099 -6.96159
RightShoulder  14.2933 23.6038 45.9526
RightArm  1.09719 17.953 15.0317
RightForeArm  -16.5478 29.8917 7.35341
RightHand  0.488812 2.17204 7.32302
LeftUpLeg  -36.9239 21.6519 -1.72503
LeftLeg  35.2895 1.78864 1.73179
LeftFoot  -2.16184 0.157726 -1.80293
LeftToes  5.72949e-011 5.22586e-011 2.45399e-011
515
root  -29.4811 36.1153 46.9077 8.84717 57.1917 6.37549
RightUpLeg  -8.65856 7.8255 -16.7618
RightLeg  61.847 -3.11423 -6.82953
RightFoot  5.73786 -1.47914 10.0896
RightToes  -5.8209e-011 0 -3.6325e-017
Spine  12.2486 1.83856 -1.83394
Spine1  0.226239 1.84319 -3.66112
HEad  -7.07459 -14.962 5.00195
LeftShoulder1  2.29918 -3.08039 -28.8641
LeftArm  15.2564 -12.7168 -25.396
LeftForeArm  -4.3739 -1.0969 -19.7438
LeftHand  0.32894 -0.343508 -6.66619
RightShoulder  14.4799 24.2349 45.4584
RightArm  -0.40883 18.7288 14.7552
RightForeArm  -19.0008 28.7271 7.16885
RightHand  0.51563 1.92566 8.01717
LeftUpLeg  -35.9293 21.5246 -3.20208
LeftLeg  39.1972 1.62149 1.81382
LeftFoot  -6.29898 0.0932312 -1.25756
LeftToes  5.72949e-011 5.22586e-011 2.45399e-011
516
root  -27.9697 35.9975 46.948 8.81444 58.5424 7.15384
RightUpLeg  -14.8659 5.61183 -15.8428
RightLeg  70.251 -1.5566 -5.65534
RightFoot  1.42566 -1.11757 10.0524
RightToes  -5.8209e-011 0 -3.6325e-017
Spine  13.185 1.19782 -3.21643
Spine1  0.532648 0.890289 -2.94974
HEad  -6.96803 -14.6759 5.08699
LeftShoulder1  2.38662 -3.371 -28.6575
LeftArm  14.8434 -19.5709 -26.3954
LeftForeArm  -3.40099 -1.33797 -19.6917
LeftHand  0.26508 -0.036675 -5.71196
RightShoulder  14.391 24.5537 44.6188
RightArm  -1.73882 19.4308 14.3633
RightForeArm  -21.7147 28.3368 7.19009
RightHand  0.520128 1.56266 8.54706
LeftUpLeg  -34.2888 20.8737 -3.90003
LeftLeg  42.2838 1.23004 1.61638
LeftFoot  -10.1263 0.0677488 -0.655441
LeftToes  5.72949e-011 5.22586e-011 2.45399e-011
